<?xml version="1.0" encoding="UTF-8" standalone="no" ?>
<!DOCTYPE svg PUBLIC "-//W3C//DTD SVG 1.1//EN" "http://www.w3.org/Graphics/SVG/1.1/DTD/svg11.dtd">
<svg xmlns="http://www.w3.org/2000/svg" xmlns:xlink="http://www.w3.org/1999/xlink" version="1.1" width="1080" height="1080" viewBox="0 0 1080 1080" xml:space="preserve">
<desc>Created with Fabric.js 5.2.4</desc>
<defs>
</defs>
<g transform="matrix(1 0 0 1 540 540)" id="0bfc835b-1e6c-4669-a444-7da6ca13735f"  >
</g>
<g transform="matrix(1 0 0 1 540 540)" id="5fda30a6-e7f2-4b2b-97b7-b5a7f7da3e9b"  >
<rect style="stroke: none; stroke-width: 1; stroke-dasharray: none; stroke-linecap: butt; stroke-dashoffset: 0; stroke-linejoin: miter; stroke-miterlimit: 4; fill: rgb(255,255,255); fill-rule: nonzero; opacity: 1; visibility: hidden;" vector-effect="non-scaling-stroke"  x="-540" y="-540" rx="0" ry="0" width="1080" height="1080" />
</g>
<g transform="matrix(1 0 0 1 540 540)"  >
<path style="stroke: rgb(0,0,0); stroke-width: 0; stroke-dasharray: none; stroke-linecap: butt; stroke-dashoffset: 0; stroke-linejoin: miter; stroke-miterlimit: 4; fill: rgb(14,214,236); fill-rule: nonzero; opacity: 1;" vector-effect="non-scaling-stroke"  transform=" translate(-14.2, -15.6)" d="M 25.1 23.6 C 24.8 23.700000000000003 24.5 23.8 24.1 23.8 C 23.5 23.900000000000002 22.8 23.8 22 23.900000000000002 C 21.2 24.000000000000004 20.3 24.200000000000003 19.4 24.700000000000003 C 18.599999999999998 25.200000000000003 18 25.800000000000004 17.5 26.300000000000004 C 16.8 27.200000000000003 16.4 28.000000000000004 16 28.500000000000004 C 15.8 28.800000000000004 15.6 28.900000000000002 15.3 29.100000000000005 C 15.100000000000001 29.200000000000006 14.9 29.300000000000004 14.5 29.300000000000004 L 14.5 16.300000000000004 L 26 22.9 C 25.7 23.2 25.4 23.4 25.1 23.599999999999998 M 13.8 29.5 C 13.3 29.4 13 29.3 12.8 29.1 C 12.600000000000001 28.900000000000002 12.3 28.700000000000003 12.100000000000001 28.400000000000002 C 11.8 27.900000000000002 11.400000000000002 27.3 10.900000000000002 26.700000000000003 C 10.400000000000002 26.000000000000004 9.800000000000002 25.400000000000002 8.800000000000002 24.800000000000004 C 8.000000000000002 24.300000000000004 7.200000000000003 24.100000000000005 6.500000000000003 24.000000000000004 C 5.400000000000002 23.800000000000004 4.500000000000003 23.900000000000002 3.8000000000000025 23.800000000000004 L 2.9000000000000026 23.500000000000004 C 2.7000000000000024 23.400000000000002 2.5000000000000027 23.200000000000003 2.3000000000000025 22.900000000000002 L 13.700000000000003 16.300000000000004 L 13.700000000000003 29.500000000000004 z M 1.7 21.3 C 1.7 21 1.8 20.7 1.9 20.3 C 2.1 19.8 2.5 19.2 2.8 18.400000000000002 C 3.0999999999999996 17.6 3.4 16.700000000000003 3.4 15.600000000000001 L 3.4 15.500000000000002 C 3.4 14.000000000000002 2.8 12.900000000000002 2.4 12.000000000000002 L 1.7999999999999998 10.800000000000002 C 1.6999999999999997 10.400000000000002 1.5999999999999999 10.100000000000003 1.5999999999999999 9.800000000000002 C 1.5999999999999999 9.500000000000002 1.7 9.200000000000003 1.7999999999999998 8.800000000000002 L 13.2 15.400000000000002 L 1.8999999999999986 22.200000000000003 C 1.7999999999999985 21.800000000000004 1.6999999999999986 21.500000000000004 1.6999999999999986 21.300000000000004 M 3.2 7.6 C 3.5 7.5 3.8000000000000003 7.3999999999999995 4.2 7.3999999999999995 C 4.8 7.3 5.5 7.3999999999999995 6.300000000000001 7.3 C 7.000000000000001 7.1 7.9 6.8999999999999995 8.8 6.3999999999999995 C 9.600000000000001 5.8999999999999995 10.200000000000001 5.299999999999999 10.700000000000001 4.799999999999999 C 11.4 3.899999999999999 11.8 3.0999999999999988 12.200000000000001 2.5999999999999988 C 12.4 2.299999999999999 12.600000000000001 2.199999999999999 12.9 1.9999999999999987 C 13.1 1.8999999999999986 13.4 1.7999999999999987 13.700000000000001 1.7999999999999987 L 13.700000000000001 15 L 2.3 8.3 C 2.5999999999999996 7.9 2.9 7.700000000000001 3.1999999999999997 7.6000000000000005 M 14.5 1.7000000000000002 C 15 1.7000000000000002 15.3 1.9000000000000001 15.5 2.1 C 15.7 2.3000000000000003 16 2.5 16.2 2.8 C 16.5 3.3 16.9 3.9 17.4 4.5 C 17.9 5.2 18.5 5.8 19.5 6.4 C 20.3 6.9 21.1 7.1000000000000005 21.9 7.2 C 23 7.3 23.9 7.3 24.599999999999998 7.4 L 25.499999999999996 7.7 C 25.699999999999996 7.8 25.899999999999995 8 26.099999999999998 8.3 L 14.699999999999998 14.9 L 14.699999999999998 1.7 z M 26.6 9.899999999999999 C 26.6 10.2 26.5 10.499999999999998 26.400000000000002 10.899999999999999 C 26.200000000000003 11.399999999999999 25.8 11.999999999999998 25.500000000000004 12.799999999999999 C 25.200000000000003 13.6 24.900000000000002 14.499999999999998 24.900000000000002 15.599999999999998 L 24.900000000000002 15.799999999999997 C 24.900000000000002 17.299999999999997 25.400000000000002 18.4 25.900000000000002 19.299999999999997 L 26.500000000000004 20.499999999999996 C 26.600000000000005 20.899999999999995 26.700000000000003 21.199999999999996 26.700000000000003 21.499999999999996 C 26.700000000000003 21.799999999999997 26.6 22.099999999999998 26.500000000000004 22.399999999999995 L 15.100000000000003 15.799999999999995 L 26.3 9 C 26.5 9.4 26.6 9.7 26.6 9.9 M 27 17.7 C 26.7 17.099999999999998 26.5 16.4 26.5 15.7 L 26.5 15.6 C 26.5 14.6 26.9 13.799999999999999 27.3 12.899999999999999 C 27.5 12.499999999999998 27.8 12.099999999999998 27.900000000000002 11.599999999999998 C 28.1 11.099999999999998 28.200000000000003 10.599999999999998 28.200000000000003 9.999999999999998 C 28.200000000000003 9.299999999999999 28.000000000000004 8.599999999999998 27.6 7.899999999999999 C 27.1 7.099999999999999 26.5 6.499999999999998 25.8 6.199999999999998 C 25.3 5.999999999999998 24.8 5.899999999999999 24.3 5.799999999999998 C 23.6 5.699999999999998 22.900000000000002 5.699999999999998 22.2 5.699999999999998 C 21.5 5.599999999999999 20.9 5.499999999999998 20.3 5.099999999999999 C 19.7 4.799999999999999 19.3 4.399999999999999 18.900000000000002 3.8999999999999986 C 18.400000000000002 2.9999999999999987 18.000000000000004 2.1999999999999984 17.3 1.3999999999999986 C 17 0.9999999999999986 16.6 0.5999999999999985 16 0.3999999999999986 C 15.5 0.09999999999999859 14.9 -1.4432899320127035e-15 14.1 -1.4432899320127035e-15 C 13.1 -1.4432899320127035e-15 12.299999999999999 0.19999999999999857 11.7 0.6999999999999985 C 11.2 0.9999999999999984 10.899999999999999 1.3999999999999986 10.6 1.7999999999999985 C 10.2 2.3999999999999986 9.9 2.9999999999999982 9.5 3.4999999999999982 C 9.1 3.9999999999999982 8.7 4.499999999999998 8 4.899999999999999 C 7.4 5.299999999999999 6.8 5.399999999999999 6.2 5.499999999999998 C 5.3 5.599999999999998 4.4 5.499999999999998 3.4000000000000004 5.699999999999998 C 2.9000000000000004 5.799999999999998 2.4000000000000004 5.999999999999998 1.9000000000000004 6.399999999999999 C 1.4000000000000004 6.699999999999998 1.0000000000000004 7.199999999999998 0.6000000000000003 7.799999999999999 C 0.2 8.5 0 9.3 0 10 C 0 10.6 0.1 11.1 0.3 11.6 C 0.6 12.299999999999999 1 12.9 1.3 13.6 C 1.6 14.2 1.8 14.9 1.8 15.7 L 1.8 15.799999999999999 C 1.8 16.9 1.4 17.599999999999998 1 18.5 C 0.8 18.9 0.5 19.3 0.4 19.8 C 0.2 20.3 0.10000000000000003 20.8 0.10000000000000003 21.400000000000002 C 0.10000000000000003 22.1 0.30000000000000004 22.8 0.7 23.500000000000004 C 1.2 24.300000000000004 1.8 24.900000000000002 2.5 25.200000000000003 C 3 25.400000000000002 3.5 25.500000000000004 4 25.6 C 4.7 25.700000000000003 5.4 25.700000000000003 6.1 25.700000000000003 C 6.8 25.800000000000004 7.3999999999999995 25.900000000000002 8.1 26.300000000000004 C 8.7 26.600000000000005 9.1 27.000000000000004 9.5 27.500000000000004 C 10 28.200000000000003 10.4 29.000000000000004 11.1 29.800000000000004 C 11.4 30.200000000000003 11.799999999999999 30.500000000000004 12.4 30.800000000000004 C 12.9 31.100000000000005 13.6 31.200000000000003 14.3 31.200000000000003 C 15.3 31.200000000000003 16.1 30.900000000000002 16.7 30.500000000000004 C 17.2 30.200000000000003 17.5 29.800000000000004 17.8 29.400000000000002 C 18.2 28.8 18.6 28.200000000000003 19 27.700000000000003 C 19.4 27.200000000000003 19.8 26.700000000000003 20.5 26.300000000000004 C 21.1 26.000000000000004 21.6 25.800000000000004 22.2 25.700000000000003 C 23.099999999999998 25.6 24 25.700000000000003 25 25.500000000000004 C 25.5 25.400000000000002 26 25.200000000000003 26.5 24.900000000000002 C 27 24.6 27.4 24.1 27.8 23.500000000000004 C 28.2 22.800000000000004 28.400000000000002 22.000000000000004 28.400000000000002 21.400000000000002 C 28.400000000000002 20.8 28.3 20.3 28.1 19.8 C 27.6 18.900000000000002 27.3 18.3 27 17.7" stroke-linecap="round" />
</g>
</svg>